<svg width="1024" height="1536" viewBox="0 0 1024 1536" fill="none" xmlns="http://www.w3.org/2000/svg">
  <defs>
    <linearGradient id="capFace" x1="0" y1="0" x2="1" y2="1">
      <stop offset="0%" stop-color="#4A4A4D"/>
      <stop offset="35%" stop-color="#111114"/>
      <stop offset="100%" stop-color="#020203"/>
    </linearGradient>
    <linearGradient id="capTop" x1="0" y1="0" x2="1" y2="0">
      <stop offset="0%" stop-color="#111114"/>
      <stop offset="45%" stop-color="#5D5D60"/>
      <stop offset="100%" stop-color="#09090B"/>
    </linearGradient>
    <linearGradient id="gold" x1="0" y1="0" x2="1" y2="0">
      <stop offset="0%" stop-color="#5A3D08"/>
      <stop offset="20%" stop-color="#F3D88C"/>
      <stop offset="50%" stop-color="#FFF7D2"/>
      <stop offset="80%" stop-color="#C79627"/>
      <stop offset="100%" stop-color="#5F4109"/>
    </linearGradient>
    <linearGradient id="glass" x1="0.08" y1="0.04" x2="0.85" y2="0.95">
      <stop offset="0%" stop-color="#302837"/>
      <stop offset="0.34" stop-color="#06050A"/>
      <stop offset="0.72" stop-color="#180C22"/>
      <stop offset="1" stop-color="#5A3E6E"/>
    </linearGradient>
    <radialGradient id="glow" cx="0" cy="0" r="1" gradientUnits="userSpaceOnUse" gradientTransform="translate(512 1078) rotate(90) scale(362 252)">
      <stop offset="0%" stop-color="#D4A7F4"/>
      <stop offset="0.4" stop-color="#8A5EAE"/>
      <stop offset="1" stop-color="#2A1935" stop-opacity="0"/>
    </radialGradient>
    <linearGradient id="edge" x1="0" y1="0" x2="1" y2="1">
      <stop offset="0%" stop-color="#8A6CA5"/>
      <stop offset="1" stop-color="#130B18"/>
    </linearGradient>
    <filter id="softGlow" x="-20%" y="-20%" width="140%" height="140%">
      <feGaussianBlur stdDeviation="18"/>
    </filter>
  </defs>

  <rect width="1024" height="1536" fill="black"/>

  <g transform="translate(182 272)">
    <path d="M150 0H510L604 70V166L536 220H124L58 172V72L150 0Z" fill="url(#capTop)"/>
    <path d="M122 74H538C551 74 562 85 562 98V170C562 183 551 194 538 194H122C109 194 98 183 98 170V98C98 85 109 74 122 74Z" fill="url(#capFace)" stroke="#E8E8EE" stroke-opacity="0.6" stroke-width="3"/>
    <path d="M164 0L96 52V188L0 124V74L150 0H164Z" fill="#030305"/>
    <path d="M496 0L564 52V188L660 124V74L510 0H496Z" fill="#030305"/>

    <g transform="translate(182 194)">
      <rect x="46" y="0" width="204" height="92" rx="8" fill="url(#gold)"/>
      <rect x="0" y="22" width="342" height="52" rx="18" fill="url(#gold)"/>
      <rect x="90" y="10" width="44" height="104" rx="10" fill="url(#gold)"/>
      <rect x="208" y="10" width="44" height="104" rx="10" fill="url(#gold)"/>
    </g>

    <g transform="translate(0 302)">
      <path d="M92 40C102 26 122 18 146 18H514C538 18 558 26 568 40L622 110V806C622 840 594 868 560 868H100C66 868 38 840 38 806V110L92 40Z" fill="url(#glass)"/>
      <path d="M100 18H560C593 18 620 45 620 78V794C620 836 586 870 544 870H116C74 870 40 836 40 794V78C40 45 67 18 100 18Z" stroke="url(#edge)" stroke-width="6"/>
      <rect x="116" y="74" width="428" height="640" rx="44" fill="url(#glow)" filter="url(#softGlow)" opacity="0.95"/>
      <path d="M98 36C88 42 78 56 70 78V792C70 820 92 842 120 842H540C568 842 590 820 590 792V78C582 54 572 40 560 36" stroke="white" stroke-opacity="0.26" stroke-width="6"/>
      <path d="M40 116L74 74V806L40 758V116Z" fill="#040406"/>
      <path d="M620 116L586 74V806L620 758V116Z" fill="#050507"/>
      <path d="M164 820C178 768 214 732 262 716H396C444 732 480 768 494 820" stroke="#8A6CA5" stroke-opacity="0.45" stroke-width="10"/>

      <text x="330" y="414" text-anchor="middle" fill="#F2D887" font-family="Brush Script MT, Snell Roundhand, cursive" font-size="118" font-style="italic">OdP</text>
    </g>
  </g>
</svg>
